<svg xmlns="http://www.w3.org/2000/svg" xmlns:xlink="http://www.w3.org/1999/xlink" width="500" zoomAndPan="magnify" viewBox="0 0 375 374.999991" height="500" preserveAspectRatio="xMidYMid meet" version="1.0"><defs><clipPath id="id1"><path d="M 79.015625 81 L 262 81 L 262 294 L 79.015625 294 Z M 79.015625 81 " clip-rule="nonzero"/></clipPath><clipPath id="id2"><path d="M 104 76.925781 L 295.765625 76.925781 L 295.765625 298.175781 L 104 298.175781 Z M 104 76.925781 " clip-rule="nonzero"/></clipPath></defs><g clip-path="url(#id1)"><path fill="rgb(16.079712%, 27.839661%, 66.268921%)" d="M 79.140625 81.628906 L 261.355469 188.957031 L 79.140625 293.597656 L 120.808594 187.613281 L 79.140625 81.628906 " fill-opacity="1" fill-rule="nonzero"/></g><g clip-path="url(#id2)"><path fill="rgb(27.839661%, 29.019165%, 31.759644%)" d="M 106.464844 85.652344 C 119.070312 93.074219 131.675781 100.5 144.28125 107.925781 C 169.851562 122.984375 195.417969 138.046875 220.980469 153.101562 C 241.125 164.96875 261.265625 176.832031 281.40625 188.695312 C 283.832031 190.121094 286.253906 191.550781 288.679688 192.976562 L 288.679688 184.929688 C 275.9375 192.246094 263.199219 199.558594 250.464844 206.875 C 224.726562 221.65625 198.984375 236.441406 173.246094 251.222656 C 153.214844 262.730469 133.179688 274.230469 113.144531 285.738281 C 110.917969 287.011719 108.691406 288.296875 106.464844 289.570312 C 108.746094 291.328125 111.023438 293.082031 113.300781 294.839844 C 121.179688 274.792969 129.0625 254.753906 136.941406 234.714844 C 141.726562 222.527344 146.515625 210.347656 151.308594 198.160156 C 152.441406 195.273438 153.578125 192.394531 154.707031 189.515625 C 155.480469 187.546875 154.832031 186.027344 154.125 184.234375 C 144.824219 160.578125 135.523438 136.917969 126.226562 113.265625 C 121.917969 102.304688 117.609375 91.347656 113.300781 80.386719 C 112.375 78.027344 110.222656 76.40625 107.578125 77.132812 C 105.328125 77.753906 103.398438 80.5 104.328125 82.867188 C 112.207031 102.90625 120.085938 122.945312 127.964844 142.984375 C 133.972656 158.273438 139.984375 173.558594 145.992188 188.847656 L 145.992188 186.371094 C 138.113281 206.410156 130.234375 226.449219 122.355469 246.496094 C 116.347656 261.78125 110.335938 277.066406 104.328125 292.355469 C 102.757812 296.351562 107.90625 299.488281 111.164062 297.617188 C 123.898438 290.308594 136.636719 282.988281 149.375 275.671875 C 175.113281 260.890625 200.855469 246.113281 226.597656 231.332031 C 246.628906 219.824219 266.664062 208.316406 286.691406 196.8125 C 288.921875 195.535156 291.144531 194.257812 293.375 192.976562 C 296.417969 191.226562 296.367188 186.6875 293.375 184.925781 C 280.769531 177.503906 268.160156 170.078125 255.554688 162.652344 C 229.988281 147.59375 204.425781 132.535156 178.859375 117.476562 C 158.71875 105.613281 138.574219 93.75 118.433594 81.882812 C 116.007812 80.457031 113.585938 79.027344 111.164062 77.601562 C 105.976562 74.546875 101.296875 82.605469 106.464844 85.648438 " fill-opacity="1" fill-rule="nonzero"/></g></svg>