<svg width="40" height="40" viewBox="0 0 40 40" fill="none" xmlns="http://www.w3.org/2000/svg">
<path d="M35 15H25V5H35V15ZM27.5 12.5H32.5V7.5H27.5V12.5Z" fill="white"/>
<path d="M21.25 18.75V11.25H11.25V28.75H28.75V18.75H21.25ZM13.75 13.75H18.75V18.75H13.75V13.75ZM18.75 26.25H13.75V21.25H18.75V26.25ZM26.25 26.25H21.25V21.25H26.25V26.25Z" fill="white"/>
<path d="M32.5 35H7.5C6.83719 34.9992 6.20175 34.7356 5.73307 34.2669C5.2644 33.7983 5.00076 33.1628 5 32.5V7.5C5.00076 6.83719 5.2644 6.20175 5.73307 5.73307C6.20175 5.2644 6.83719 5.00076 7.5 5H20V7.5H7.5V32.5H32.5V20H35V32.5C34.9992 33.1628 34.7356 33.7983 34.2669 34.2669C33.7983 34.7356 33.1628 34.9992 32.5 35Z" fill="white"/>
</svg>
