<svg width="23" height="23" viewBox="0 0 23 23" fill="none" xmlns="http://www.w3.org/2000/svg">
<path d="M22.1786 5H0.821429C0.367076 5 0 5.34597 0 5.77419V17.7742C0 18.2024 0.367076 18.5484 0.821429 18.5484H10.5759V21.2581H6.16071C5.93482 21.2581 5.75 21.4323 5.75 21.6452V22.8065C5.75 22.9129 5.84241 23 5.95536 23H17.0446C17.1576 23 17.25 22.9129 17.25 22.8065V21.6452C17.25 21.4323 17.0652 21.2581 16.8393 21.2581H12.4241V18.5484H22.1786C22.6329 18.5484 23 18.2024 23 17.7742V5.77419C23 5.34597 22.6329 5 22.1786 5ZM21.1518 16.8065H1.84821V6.74194H21.1518V16.8065Z" fill="#444444"/>
</svg>
