<svg width="35" height="37" viewBox="0 0 35 37" fill="none" xmlns="http://www.w3.org/2000/svg">
<path d="M31.7187 5.05859H3.28125C2.67627 5.05859 2.1875 5.57529 2.1875 6.21484V24.1367C2.1875 24.7763 2.67627 25.293 3.28125 25.293H16.2695V29.3398H10.3906C10.0898 29.3398 9.84375 29.6 9.84375 29.918V31.6523C9.84375 31.8113 9.9668 31.9414 10.1172 31.9414H24.8828C25.0332 31.9414 25.1562 31.8113 25.1562 31.6523V29.918C25.1562 29.6 24.9102 29.3398 24.6094 29.3398H18.7305V25.293H31.7187C32.3237 25.293 32.8125 24.7763 32.8125 24.1367V6.21484C32.8125 5.57529 32.3237 5.05859 31.7187 5.05859ZM30.3516 22.6914H4.64844V7.66016H30.3516V22.6914Z" fill="#444444"/>
</svg>
