<svg width="20" height="18" viewBox="0 0 20 18" fill="none" xmlns="http://www.w3.org/2000/svg">
<path d="M19.9999 12.9796C19.9999 11.7625 19.6495 10.5873 18.9864 9.58095C18.5094 8.85713 17.8952 8.25605 17.1834 7.80937C18.0214 6.98404 18.5458 5.81751 18.5458 4.52528C18.5458 2.03006 16.5938 0 14.1946 0C12.7719 0 11.4392 0.731747 10.6297 1.93295C10.424 1.90179 10.2139 1.88498 9.99997 1.88498C9.78606 1.88498 9.57595 1.90185 9.37025 1.93295C8.56071 0.731747 7.22803 0 5.80542 0C3.40617 0 1.45419 2.03006 1.45419 4.52528C1.45419 5.81751 1.97851 6.98404 2.81656 7.80937C2.10474 8.25599 1.49054 8.85713 1.01363 9.58089C0.350513 10.5873 0 11.7625 0 12.9796V15.4967H4.19461V17.3816H15.8054V15.4967H20V12.9796H19.9999ZM14.1946 1.11689C16.0017 1.11689 17.4719 2.64588 17.4719 4.52534C17.4719 6.40479 16.0017 7.93379 14.1946 7.93379C14.1622 7.93379 14.1298 7.93329 14.0974 7.93228C14.0999 7.92513 14.1019 7.91782 14.1043 7.91067C14.1603 7.74571 14.2069 7.57629 14.2444 7.40324C14.247 7.39095 14.25 7.37878 14.2525 7.36644C14.2622 7.31976 14.2708 7.27263 14.2791 7.22538C14.283 7.20305 14.287 7.18077 14.2906 7.15837C14.2974 7.11621 14.3035 7.07389 14.3092 7.03139C14.3131 7.00185 14.3166 6.97231 14.32 6.94271C14.3243 6.90519 14.3284 6.86761 14.3318 6.8298C14.3352 6.79122 14.3378 6.75257 14.3403 6.71388C14.3422 6.68339 14.3446 6.65301 14.3459 6.62235C14.3489 6.55663 14.3506 6.49079 14.3508 6.4249C14.3508 6.42004 14.3512 6.41529 14.3512 6.41038C14.3512 6.40775 14.3509 6.40513 14.3509 6.4025C14.3508 6.33521 14.349 6.26832 14.3461 6.20164C14.3452 6.18227 14.3441 6.16294 14.343 6.14362C14.3398 6.08694 14.3357 6.03054 14.3306 5.97442C14.3294 5.96169 14.3284 5.94896 14.3272 5.93628C14.1649 4.30521 13.1741 2.90912 11.7448 2.26337C12.3607 1.54374 13.2516 1.11689 14.1946 1.11689ZM8.86602 3.21217C8.87649 3.2082 8.88706 3.20446 8.89753 3.20055C8.93013 3.18844 8.96299 3.17693 8.99601 3.16582C9.02103 3.1575 9.04621 3.14946 9.07155 3.14175C9.08997 3.13611 9.10844 3.1307 9.12697 3.12534C9.16004 3.1159 9.19328 3.10668 9.22684 3.09825C9.4749 3.0356 9.7336 3.00159 9.99987 3.00159C10.2663 3.00181 10.5252 3.03588 10.7733 3.09853C10.8066 3.10691 10.8396 3.11607 10.8726 3.12545C10.8913 3.13086 10.9101 3.13634 10.9288 3.14209C10.9538 3.14974 10.9787 3.15767 11.0035 3.16588C11.0369 3.1771 11.0701 3.18872 11.1031 3.201C11.1133 3.20474 11.1234 3.20832 11.1335 3.21217C12.2296 3.63372 13.0513 4.64819 13.2373 5.87932C13.2388 5.88915 13.2402 5.89904 13.2416 5.90892C13.2475 5.95063 13.2525 5.99268 13.257 6.03484C13.2586 6.05037 13.2603 6.06584 13.2618 6.08142C13.2653 6.11989 13.2679 6.15864 13.2703 6.19751C13.2713 6.21415 13.2726 6.23074 13.2734 6.24743C13.2756 6.29707 13.2768 6.347 13.277 6.3972C13.277 6.40155 13.2773 6.4058 13.2773 6.41015C13.2773 6.41216 13.2772 6.41423 13.2772 6.41624C13.2771 6.46482 13.2757 6.51307 13.2736 6.56115C13.273 6.57628 13.2723 6.59142 13.2715 6.60649C13.269 6.65295 13.2656 6.69919 13.2613 6.74509C13.2597 6.76285 13.2574 6.78055 13.2555 6.79825C13.2522 6.82796 13.2486 6.85761 13.2446 6.8871C13.2415 6.91005 13.2383 6.93305 13.2348 6.95589C13.2294 6.99068 13.2234 7.02525 13.2169 7.0597C13.2112 7.09036 13.2049 7.1209 13.1983 7.15139C13.1944 7.16977 13.1903 7.18814 13.1861 7.2064C13.1756 7.25168 13.1641 7.29669 13.1519 7.34153C13.147 7.35935 13.1425 7.37727 13.1373 7.39492C13.1298 7.42061 13.1218 7.44607 13.1138 7.47153C13.1073 7.49192 13.1007 7.51219 13.0939 7.5324C13.0862 7.55535 13.0786 7.57836 13.0704 7.60114C13.0565 7.63984 13.0419 7.6782 13.0267 7.71623C13.0199 7.73321 13.0127 7.75001 13.0057 7.76693C12.9924 7.7986 12.9788 7.83009 12.9646 7.86125C12.963 7.86494 12.9613 7.86862 12.9596 7.87231C12.9545 7.88336 12.9495 7.89448 12.9443 7.90553C12.9284 7.93926 12.9118 7.9726 12.8949 8.00566C12.8883 8.0185 12.8819 8.03151 12.8751 8.0443C12.8747 8.04514 12.8743 8.04592 12.8738 8.0467C12.8552 8.08188 12.8359 8.1165 12.8162 8.1509C12.8083 8.16453 12.8006 8.17821 12.7926 8.19166C12.7711 8.22791 12.749 8.26376 12.7263 8.29905C12.7122 8.32099 12.6974 8.34249 12.6828 8.3641C12.6704 8.38242 12.6581 8.40079 12.6454 8.41883C12.6289 8.44217 12.6121 8.46523 12.595 8.48818C12.5834 8.50376 12.5717 8.51923 12.5599 8.53464C12.5418 8.5581 12.5236 8.58144 12.5051 8.60439C12.4935 8.61863 12.4816 8.63259 12.4699 8.6466C12.4506 8.66967 12.4313 8.69279 12.4114 8.71529C12.3996 8.72864 12.3874 8.74148 12.3753 8.75466C12.343 8.79012 12.3099 8.8248 12.2762 8.8588C12.2562 8.87896 12.2363 8.89918 12.2158 8.91878C12.2016 8.93235 12.187 8.94552 12.1726 8.95887C12.1491 8.98059 12.1254 9.00209 12.1013 9.02309C12.089 9.03375 12.0767 9.04431 12.0643 9.05481C12.0351 9.07949 12.0056 9.10367 11.9756 9.12734C11.9674 9.13377 11.9594 9.1403 11.9511 9.14667C11.4056 9.56844 10.7304 9.81844 9.99992 9.81844C9.26942 9.81844 8.59406 9.56838 8.04853 9.1465C8.04047 9.14024 8.03258 9.13382 8.02458 9.12751C7.99446 9.10378 7.96477 9.07943 7.9355 9.05464C7.92321 9.0442 7.91091 9.03375 7.89878 9.02314C7.87456 9.00204 7.85083 8.98043 7.8272 8.95865C7.81287 8.94536 7.79837 8.93229 7.78425 8.91878C7.76368 8.89912 7.74371 8.87885 7.72363 8.85869C7.68975 8.82457 7.65662 8.78978 7.62419 8.75421C7.61232 8.7412 7.60019 8.72852 7.58853 8.71535C7.56861 8.69279 7.54934 8.66961 7.53001 8.64655C7.51825 8.63253 7.50644 8.61863 7.49489 8.60439C7.47626 8.58144 7.45811 8.5581 7.44007 8.5347C7.42826 8.51929 7.4165 8.50382 7.4049 8.48818C7.38788 8.46529 7.37108 8.44222 7.35459 8.41888C7.34187 8.40079 7.32946 8.38236 7.31706 8.36399C7.30245 8.34244 7.28774 8.32099 7.27367 8.2991C7.25085 8.26364 7.22868 8.22768 7.20715 8.19133C7.19926 8.17798 7.19163 8.16453 7.1839 8.15107C7.16387 8.11617 7.14427 8.0811 7.12543 8.04542C7.1185 8.03229 7.11195 8.01895 7.10513 8.00577C7.08816 7.9726 7.07157 7.93915 7.05562 7.90537C7.04993 7.89336 7.0444 7.88124 7.03887 7.86918C7.03801 7.86734 7.03721 7.86549 7.0364 7.86365C7.02153 7.83104 7.0073 7.79809 6.99339 7.76487C6.98679 7.74907 6.98008 7.73332 6.97374 7.71746C6.95817 7.67859 6.9433 7.63939 6.92907 7.59986C6.92139 7.57853 6.9143 7.55697 6.90705 7.53547C6.89959 7.51341 6.89239 7.49119 6.88536 7.46891C6.87779 7.44478 6.87017 7.42066 6.86308 7.39643C6.8525 7.36018 6.84251 7.32372 6.83312 7.28703C6.82651 7.26129 6.82055 7.23532 6.81449 7.20941C6.80976 7.18903 6.8052 7.16865 6.80085 7.14815C6.79548 7.12303 6.79006 7.09795 6.78522 7.07271C6.77776 7.0334 6.77094 6.99387 6.76482 6.95411C6.76149 6.93266 6.75859 6.91116 6.75564 6.88972C6.75129 6.85795 6.74737 6.82601 6.74388 6.79395C6.74216 6.77815 6.74017 6.76235 6.73862 6.74654C6.73416 6.69947 6.73078 6.65206 6.7282 6.60448C6.72745 6.5908 6.72686 6.57712 6.72627 6.56344C6.72407 6.51257 6.72251 6.46153 6.72251 6.41015C6.72251 6.35509 6.72401 6.30043 6.72654 6.24598C6.72723 6.23118 6.72841 6.2165 6.72922 6.20175C6.73158 6.16088 6.73443 6.12011 6.73819 6.07957C6.73948 6.06544 6.74103 6.05137 6.74248 6.0373C6.7471 5.99341 6.75231 5.94974 6.75854 5.90635C6.75972 5.89792 6.7609 5.88943 6.76219 5.881C6.94759 4.64914 7.76954 3.634 8.86602 3.21217ZM2.52806 4.52534C2.52806 2.64594 3.99825 1.11689 5.80542 1.11689C6.74844 1.11689 7.63928 1.54379 8.2552 2.26325C6.82539 2.90923 5.83436 4.30599 5.67258 5.93774C5.67145 5.94879 5.67065 5.9599 5.66963 5.97102C5.66426 6.02915 5.66002 6.0875 5.6568 6.14619C5.65583 6.16406 5.65475 6.18187 5.65395 6.1998C5.65089 6.26966 5.64879 6.33974 5.64879 6.41032C5.64879 6.48158 5.65078 6.55266 5.654 6.62369C5.65529 6.65228 5.65755 6.68059 5.65932 6.70902C5.66195 6.74989 5.66463 6.79077 5.66829 6.83153C5.67151 6.86777 5.67548 6.90379 5.67956 6.93981C5.68311 6.97119 5.68686 7.00246 5.69105 7.03374C5.69653 7.07478 5.70243 7.11566 5.70893 7.15636C5.71285 7.18054 5.71715 7.20467 5.72139 7.22879C5.72944 7.27436 5.73766 7.31981 5.747 7.36488C5.75011 7.37973 5.75366 7.39447 5.75688 7.40927C5.79334 7.57696 5.8386 7.74114 5.89251 7.90123C5.89595 7.91156 5.89895 7.92201 5.90244 7.93228C5.87007 7.93329 5.83764 7.93379 5.80531 7.93379C3.99825 7.93373 2.52806 6.40474 2.52806 4.52534ZM5.09489 11.6452C5.08308 11.6646 5.0718 11.6843 5.0602 11.7038C5.03567 11.745 5.01134 11.7863 4.98782 11.828C4.97467 11.8513 4.962 11.8747 4.94922 11.8982C4.92806 11.9369 4.90718 11.9757 4.88688 12.0149C4.8741 12.0395 4.86154 12.0642 4.84908 12.089C4.82954 12.1279 4.81047 12.167 4.79179 12.2063C4.78003 12.231 4.76833 12.2556 4.75694 12.2804C4.73793 12.3218 4.71962 12.3635 4.70153 12.4052C4.6917 12.428 4.68161 12.4505 4.67211 12.4734C4.65117 12.5234 4.63119 12.5738 4.61159 12.6244C4.60585 12.6392 4.59973 12.6538 4.59414 12.6686C4.56928 12.7344 4.5455 12.8005 4.52294 12.867C4.51779 12.8823 4.51317 12.8977 4.50807 12.913C4.4911 12.9642 4.47457 13.0156 4.45894 13.0673C4.4518 13.091 4.4452 13.1149 4.43832 13.1387C4.42571 13.1824 4.4133 13.2263 4.40165 13.2704C4.39472 13.2966 4.38812 13.3229 4.38152 13.3493C4.37088 13.3916 4.36068 13.4341 4.35102 13.4767C4.34484 13.5036 4.33883 13.5306 4.33308 13.5576C4.32385 13.6008 4.3152 13.6441 4.30688 13.6875C4.30189 13.7136 4.29673 13.7397 4.29206 13.7659C4.28363 13.8131 4.27606 13.8606 4.2687 13.9081C4.26527 13.9304 4.26146 13.9527 4.25823 13.975C4.24825 14.0448 4.23917 14.1148 4.23155 14.1851C4.23144 14.1859 4.23139 14.1867 4.23133 14.1876C4.22441 14.2515 4.21845 14.3156 4.21345 14.3798H1.07387V12.9796C1.07387 11.0666 2.13132 9.3492 3.78798 8.53291C4.3915 8.86282 5.07755 9.05062 5.80537 9.05062C6.01585 9.05062 6.22697 9.03442 6.43648 9.00237C6.46913 9.05079 6.50231 9.0987 6.53667 9.14572C6.54827 9.16152 6.5603 9.17693 6.57211 9.19257C6.60605 9.23769 6.64046 9.2823 6.67601 9.32603C6.69056 9.34395 6.70549 9.36149 6.72031 9.37919C6.7536 9.41895 6.78742 9.45821 6.822 9.49668C6.84015 9.51695 6.85862 9.53689 6.87709 9.55682C6.90872 9.59072 6.94077 9.62411 6.97337 9.657C6.98561 9.66934 6.99715 9.68241 7.0095 9.69464C6.96284 9.72395 6.91661 9.754 6.87081 9.78465C6.86335 9.78962 6.85604 9.79487 6.84863 9.7999C6.80283 9.83084 6.75752 9.86244 6.71263 9.89466C6.69711 9.90583 6.68165 9.91711 6.66618 9.92839C6.62618 9.95771 6.58661 9.98753 6.54736 10.0178C6.53496 10.0275 6.52239 10.0368 6.5101 10.0466C6.46016 10.0858 6.41082 10.1258 6.36212 10.1667C6.35148 10.1756 6.34107 10.1848 6.33044 10.1939C6.29167 10.2269 6.25328 10.2604 6.21537 10.2945C6.20066 10.3077 6.18605 10.321 6.17145 10.3343C6.13349 10.3691 6.09601 10.4044 6.05891 10.4402C6.04924 10.4495 6.03936 10.4587 6.02975 10.4681C5.98422 10.5127 5.93939 10.5581 5.8952 10.6042C5.8837 10.6162 5.87248 10.6285 5.8611 10.6405C5.82727 10.6764 5.79382 10.7127 5.7608 10.7495C5.7477 10.7642 5.7346 10.7788 5.7216 10.7936C5.68445 10.8358 5.64783 10.8786 5.6118 10.922C5.60616 10.9288 5.60031 10.9354 5.59467 10.9422C5.5536 10.9921 5.51343 11.0429 5.47381 11.0942C5.46275 11.1085 5.45195 11.1231 5.44105 11.1375C5.41125 11.1769 5.38188 11.2167 5.353 11.2568C5.34183 11.2723 5.33061 11.2877 5.3196 11.3034C5.2818 11.357 5.24448 11.411 5.20824 11.466C5.16931 11.5251 5.13162 11.5849 5.09489 11.6452ZM5.26848 16.2648V15.4967V14.8646C5.26848 14.8026 5.26961 14.7409 5.27181 14.6793C5.27251 14.659 5.27407 14.6389 5.27503 14.6187C5.27697 14.5776 5.27879 14.5364 5.28169 14.4955C5.28346 14.4706 5.28615 14.446 5.2883 14.4212C5.29141 14.3852 5.2942 14.349 5.29807 14.3132C5.30091 14.2869 5.30462 14.2609 5.30784 14.2347C5.31203 14.2005 5.31595 14.1664 5.32078 14.1324C5.3247 14.1054 5.32942 14.0786 5.33372 14.0517C5.33898 14.0189 5.34387 13.9861 5.34977 13.9536C5.35477 13.926 5.36057 13.8988 5.36599 13.8714C5.37222 13.8398 5.37818 13.808 5.385 13.7766C5.39101 13.749 5.39788 13.7215 5.40433 13.6939C5.41158 13.6632 5.4185 13.6324 5.42629 13.6018C5.43338 13.5741 5.44121 13.5466 5.44873 13.5191C5.45689 13.4891 5.46484 13.459 5.47354 13.4293C5.48165 13.4016 5.49056 13.3741 5.4991 13.3466C5.50822 13.3174 5.51708 13.2881 5.5267 13.2591C5.53582 13.2317 5.54565 13.2045 5.55521 13.1773C5.5653 13.1486 5.57518 13.1198 5.58576 13.0913C5.59585 13.0642 5.60659 13.0375 5.61706 13.0106C5.62807 12.9825 5.63892 12.9542 5.65041 12.9264C5.66152 12.8995 5.67323 12.8729 5.68477 12.8463C5.69664 12.8189 5.70839 12.7914 5.72074 12.7642C5.73283 12.7377 5.7455 12.7115 5.75801 12.6852C5.77079 12.6584 5.78341 12.6316 5.79661 12.605C5.80966 12.5789 5.82325 12.5531 5.83672 12.5273C5.85036 12.5011 5.86384 12.4749 5.87791 12.449C5.89187 12.4233 5.90636 12.398 5.9207 12.3726C5.9352 12.347 5.94959 12.3214 5.96457 12.296C5.97944 12.2708 5.9948 12.246 6.0101 12.2211C6.02546 12.1962 6.04071 12.1712 6.05649 12.1465C6.07228 12.1218 6.08849 12.0975 6.10471 12.0731C6.12087 12.0489 6.13698 12.0246 6.15352 12.0006C6.17016 11.9764 6.18729 11.9526 6.20442 11.9288C6.22138 11.9052 6.2383 11.8816 6.25564 11.8583C6.27315 11.8348 6.29108 11.8116 6.30901 11.7884C6.32679 11.7654 6.34461 11.7424 6.36276 11.7197C6.38107 11.6969 6.39976 11.6744 6.41844 11.652C6.43707 11.6296 6.45576 11.6072 6.47482 11.5851C6.49388 11.563 6.51337 11.5412 6.53281 11.5194C6.55225 11.4977 6.57168 11.4761 6.5915 11.4548C6.61136 11.4333 6.6316 11.4122 6.6519 11.3912C6.67214 11.3701 6.69249 11.3492 6.71311 11.3284C6.73368 11.3078 6.75456 11.2875 6.77556 11.2672C6.79661 11.2469 6.81776 11.2266 6.83918 11.2067C6.86055 11.1868 6.88214 11.1672 6.90389 11.1477C6.92569 11.1281 6.94765 11.1086 6.96982 11.0894C6.99189 11.0703 7.01417 11.0515 7.03662 11.0328C7.05922 11.0139 7.08199 10.9952 7.10497 10.9767C7.12768 10.9585 7.15061 10.9405 7.17364 10.9226C7.19705 10.9045 7.22062 10.8866 7.24446 10.8689C7.26777 10.8515 7.29129 10.8344 7.31496 10.8174C7.33923 10.8001 7.36361 10.7829 7.3882 10.766C7.4121 10.7496 7.43621 10.7333 7.46042 10.7173C7.4855 10.7007 7.51073 10.6844 7.53613 10.6683C7.56061 10.6528 7.58526 10.6374 7.61007 10.6223C7.63584 10.6066 7.66183 10.5912 7.68798 10.5759C7.71305 10.5613 7.73829 10.5468 7.76368 10.5327C7.79026 10.5178 7.81705 10.5032 7.84401 10.4888C7.86957 10.4751 7.89523 10.4617 7.92111 10.4484C7.94146 10.4381 7.96203 10.428 7.98259 10.4179C8.58606 10.7478 9.27221 10.9355 9.99997 10.9355C10.7278 10.9355 11.4139 10.7478 12.0174 10.4179C12.0378 10.4279 12.0582 10.4379 12.0784 10.4482C12.1046 10.4616 12.1305 10.4752 12.1564 10.489C12.183 10.5033 12.2095 10.5177 12.2358 10.5324C12.2615 10.5467 12.287 10.5614 12.3123 10.5762C12.3382 10.5912 12.3638 10.6065 12.3893 10.622C12.4145 10.6373 12.4394 10.6529 12.4642 10.6686C12.4893 10.6845 12.5142 10.7006 12.5389 10.717C12.5635 10.7332 12.5879 10.7497 12.6121 10.7663C12.6364 10.783 12.6605 10.8 12.6844 10.8172C12.7083 10.8343 12.7321 10.8516 12.7557 10.8691C12.7793 10.8866 12.8026 10.9044 12.8258 10.9224C12.8491 10.9403 12.8722 10.9585 12.8951 10.9769C12.9179 10.9952 12.9405 11.0138 12.9629 11.0325C12.9855 11.0513 13.0079 11.0702 13.0301 11.0894C13.0522 11.1085 13.074 11.1279 13.0957 11.1474C13.1175 11.167 13.1393 11.1867 13.1608 11.2068C13.182 11.2266 13.203 11.2467 13.2239 11.2669C13.2451 11.2873 13.2662 11.3078 13.2869 11.3287C13.3074 11.3492 13.3275 11.3699 13.3476 11.3908C13.368 11.412 13.3884 11.4333 13.4084 11.4548C13.428 11.476 13.4474 11.4975 13.4667 11.519C13.4864 11.541 13.506 11.563 13.5252 11.5853C13.5441 11.6072 13.5626 11.6293 13.5811 11.6515C13.5999 11.6742 13.6188 11.6968 13.6372 11.7198C13.6553 11.7423 13.6729 11.7652 13.6906 11.788C13.7087 11.8114 13.7267 11.8347 13.7443 11.8583C13.7616 11.8815 13.7784 11.905 13.7953 11.9285C13.8124 11.9524 13.8296 11.9764 13.8464 12.0006C13.8629 12.0245 13.8789 12.0487 13.895 12.0729C13.9112 12.0973 13.9276 12.1218 13.9434 12.1466C13.9591 12.1711 13.9742 12.1959 13.9895 12.2207C14.0049 12.2458 14.0203 12.2708 14.0353 12.2961C14.0501 12.3212 14.0644 12.3467 14.0788 12.372C14.0933 12.3976 14.1079 12.4231 14.1219 12.449C14.1359 12.4748 14.1494 12.5009 14.163 12.5269C14.1765 12.5529 14.1901 12.5788 14.2032 12.605C14.2164 12.6315 14.2289 12.6583 14.2417 12.6851C14.2542 12.7114 14.267 12.7376 14.279 12.7642C14.2914 12.7913 14.3031 12.8187 14.3149 12.8461C14.3265 12.8729 14.3383 12.8994 14.3494 12.9264C14.3608 12.954 14.3715 12.982 14.3825 13.0099C14.3931 13.0371 14.4039 13.0641 14.4141 13.0915C14.4246 13.1198 14.4344 13.1484 14.4445 13.177C14.4541 13.2043 14.4639 13.2315 14.473 13.2591C14.4827 13.2881 14.4916 13.3176 14.5007 13.3469C14.5093 13.3743 14.5181 13.4016 14.5262 13.4293C14.5349 13.459 14.5428 13.4891 14.5511 13.5191C14.5586 13.5466 14.5664 13.5741 14.5735 13.6018C14.5813 13.6324 14.5882 13.6632 14.5955 13.6939C14.602 13.7215 14.6088 13.749 14.6148 13.7766C14.6216 13.808 14.6275 13.8397 14.6338 13.8712C14.6392 13.8987 14.645 13.926 14.65 13.9536C14.6559 13.9858 14.6607 14.0184 14.666 14.0509C14.6703 14.0781 14.6751 14.1051 14.6791 14.1325C14.6839 14.1661 14.6878 14.2001 14.6919 14.2339C14.6952 14.2603 14.699 14.2866 14.7018 14.3131C14.7057 14.349 14.7085 14.3851 14.7116 14.4212C14.7137 14.446 14.7164 14.4706 14.7182 14.4954C14.7212 14.5364 14.7229 14.5776 14.7249 14.6187C14.7258 14.6389 14.7274 14.659 14.7281 14.6792C14.7303 14.7408 14.7314 14.8026 14.7314 14.8646V15.4966V16.2648H5.26848V16.2648ZM15.7868 14.3798C15.7762 14.2438 15.7611 14.1086 15.7419 13.9743C15.7388 13.953 15.7352 13.9319 15.7319 13.9107C15.7244 13.862 15.7166 13.8135 15.708 13.7651C15.7034 13.7397 15.6984 13.7143 15.6935 13.6889C15.6851 13.6448 15.6763 13.6007 15.6669 13.5568C15.6612 13.5303 15.6553 13.5039 15.6493 13.4775C15.6395 13.4344 15.6292 13.3915 15.6184 13.3486C15.6119 13.3227 15.6054 13.2967 15.5986 13.2708C15.5868 13.2263 15.5742 13.1819 15.5615 13.1377C15.5547 13.1143 15.5483 13.0909 15.5412 13.0676C15.5254 13.0152 15.5086 12.963 15.4914 12.911C15.4866 12.8965 15.4822 12.8818 15.4772 12.8673C15.4546 12.8005 15.4308 12.7342 15.4058 12.6683C15.4004 12.6541 15.3946 12.6402 15.3891 12.626C15.3693 12.5748 15.349 12.5237 15.3278 12.473C15.3184 12.4505 15.3085 12.4283 15.2988 12.4059C15.2805 12.3637 15.2621 12.3216 15.2428 12.2799C15.2316 12.2554 15.22 12.2311 15.2085 12.2068C15.1896 12.1672 15.1704 12.1277 15.1507 12.0884C15.1383 12.0639 15.1259 12.0394 15.1132 12.015C15.0928 11.9758 15.0719 11.9368 15.0506 11.8979C15.0378 11.8746 15.0252 11.8512 15.0122 11.8281C14.9885 11.7861 14.9641 11.7446 14.9394 11.7032C14.9279 11.6839 14.9168 11.6644 14.9051 11.6452C14.8683 11.585 14.8306 11.5252 14.7916 11.466C14.7553 11.411 14.718 11.3569 14.6802 11.3033C14.6692 11.2878 14.6581 11.2724 14.647 11.257C14.618 11.2167 14.5885 11.1768 14.5586 11.1372C14.5478 11.123 14.5371 11.1086 14.5261 11.0945C14.4865 11.043 14.4461 10.9921 14.405 10.9421C14.3996 10.9356 14.3941 10.9293 14.3887 10.9228C14.3524 10.8791 14.3154 10.836 14.278 10.7934C14.2651 10.7788 14.2522 10.7643 14.2392 10.7498C14.206 10.7128 14.1724 10.6762 14.1383 10.6401C14.1271 10.6283 14.1161 10.6162 14.1048 10.6045C14.0605 10.5582 14.0155 10.5127 13.9698 10.468C13.9604 10.4588 13.9508 10.4498 13.9413 10.4407C13.904 10.4047 13.8663 10.3692 13.8282 10.3342C13.8137 10.321 13.7991 10.3078 13.7845 10.2946C13.7465 10.2605 13.7081 10.2269 13.6692 10.1939C13.6587 10.1849 13.6483 10.1757 13.6377 10.1667C13.589 10.1258 13.5397 10.0859 13.4898 10.0467C13.4773 10.0369 13.4647 10.0274 13.4522 10.0177C13.4131 9.98758 13.3737 9.95787 13.3339 9.92873C13.3182 9.91728 13.3026 9.90589 13.2869 9.89461C13.2425 9.86272 13.1976 9.83145 13.1523 9.80085C13.1444 9.79549 13.1366 9.7899 13.1287 9.7846C13.0829 9.75405 13.0368 9.72407 12.9902 9.6948C13.0023 9.68291 13.0135 9.67024 13.0254 9.65817C13.0587 9.62467 13.0914 9.59061 13.1236 9.55598C13.1416 9.53666 13.1595 9.51729 13.1771 9.49763C13.2123 9.45854 13.2465 9.41867 13.2803 9.3783C13.2947 9.36115 13.3092 9.34412 13.3233 9.3267C13.3593 9.28236 13.3943 9.23707 13.4287 9.19123C13.44 9.17626 13.4516 9.16152 13.4626 9.14639C13.4972 9.0992 13.5305 9.05106 13.5633 9.00248C13.7728 9.03448 13.9839 9.05067 14.1944 9.05067C14.9222 9.05067 15.6083 8.86293 16.2118 8.53297C17.8685 9.34926 18.9259 11.0667 18.9259 12.9797V14.3798H15.7868V14.3798Z" fill="#FFF"/>
</svg>
