<svg width="20" height="21" viewBox="0 0 20 21" fill="none" xmlns="http://www.w3.org/2000/svg">
<g clip-path="url(#clip0_230_24)">
<path d="M9.97287 0.000387111C9.79518 0.00621234 9.62409 0.0664362 9.48459 0.172259L1.58854 6.14402C0.586376 6.90221 0 8.06077 0 9.28563V19.4667C0 20.1939 0.631337 20.8 1.38889 20.8H6.94444C7.702 20.8 8.33333 20.1939 8.33333 19.4667V14.1335C8.33333 13.9761 8.4472 13.8668 8.61111 13.8668H11.3889C11.5528 13.8668 11.6667 13.9761 11.6667 14.1335V19.4667C11.6667 20.1939 12.298 20.8 13.0556 20.8H18.6111C19.3687 20.8 20 20.1939 20 19.4667V9.28563C20 8.06077 19.4136 6.90221 18.4115 6.14402L10.5154 0.172259C10.3613 0.0553946 10.1692 -0.00547478 9.97287 0.000387111ZM10 1.8191L17.3806 7.40129C17.9829 7.85695 18.3333 8.54999 18.3333 9.28563V19.2H13.3333V14.1335C13.3333 13.1122 12.4528 12.2668 11.3889 12.2668H8.61111C7.54725 12.2668 6.66667 13.1122 6.66667 14.1335V19.2H1.66667V9.28563C1.66667 8.54999 2.01708 7.85695 2.61936 7.40129L10 1.8191Z" fill="#FFF"/>
</g>
<defs>
<clipPath id="clip0_230_24">
<rect width="20" height="20.8" fill="white"/>
</clipPath>
</defs>
</svg>
