<svg width="30" height="30" viewBox="0 0 30 30" fill="none" xmlns="http://www.w3.org/2000/svg">
<path d="M14.9593 0.000558333C14.6928 0.00896011 14.4361 0.0958214 14.2269 0.24845L2.38281 8.86157C0.879564 9.95511 0 11.6261 0 13.3927V28.077C0 29.1259 0.947005 30 2.08333 30H10.4167C11.553 30 12.5 29.1259 12.5 28.077V20.3848C12.5 20.1578 12.6708 20.0002 12.9167 20.0002H17.0833C17.3292 20.0002 17.5 20.1578 17.5 20.3848V28.077C17.5 29.1259 18.447 30 19.5833 30H27.9167C29.053 30 30 29.1259 30 28.077V13.3927C30 11.6261 29.1204 9.95511 27.6172 8.86157L15.7731 0.24845C15.542 0.079896 15.2537 -0.00789632 14.9593 0.000558333ZM15 2.62371L26.071 10.6749C26.9744 11.3321 27.5 12.3317 27.5 13.3927V27.6924H20V20.3848C20 18.9118 18.6791 17.6925 17.0833 17.6925H12.9167C11.3209 17.6925 10 18.9118 10 20.3848V27.6924H2.5V13.3927C2.5 12.3317 3.02562 11.3321 3.92904 10.6749L15 2.62371Z" fill="#387ADD"/>
</svg>
