<svg width="20" height="21" viewBox="0 0 20 21" fill="none" xmlns="http://www.w3.org/2000/svg">
<path d="M17.124 7.98022C17.1077 7.95836 17.0904 7.93702 17.0711 7.91692C17.0518 7.8969 17.0313 7.8789 17.0103 7.86196C15.2045 6.01357 12.7289 4.87106 10.0011 4.8708C10.0008 4.8708 10.0004 4.87071 10.0004 4.87071C9.99966 4.87071 9.99932 4.8708 9.99899 4.8708C7.27112 4.87106 4.79549 6.01357 2.98974 7.86196C2.96872 7.8789 2.94821 7.89681 2.92896 7.91692C2.90963 7.93702 2.89241 7.95836 2.87611 7.98022C1.09856 9.85846 0 12.4335 0 15.2708C0 15.6345 0.283399 15.9293 0.633152 15.9293H19.3668C19.7166 15.9293 20 15.6345 20 15.2708C20 12.4335 18.9014 9.85846 17.124 7.98022ZM10 12.9669C9.37917 12.9669 8.81837 13.2329 8.41619 13.6607L8.01747 13.4804C8.4996 12.9037 9.20932 12.5381 10 12.5381C11.2306 12.5381 12.2658 13.4226 12.55 14.6123H12.1229C11.8505 13.6609 11.0033 12.9669 10 12.9669ZM13.4129 14.6123C13.1143 12.9349 11.698 11.6601 10 11.6601C8.861 11.6601 7.84847 12.2336 7.21506 13.1174L3.62914 11.4953C3.30834 11.3501 2.93538 11.5031 2.796 11.8365C2.65662 12.17 2.80343 12.558 3.12414 12.703L6.65654 14.3009C6.6291 14.403 6.60597 14.5069 6.58714 14.6124H1.28901C1.42805 12.6023 2.19932 10.7716 3.39597 9.33387L3.82795 9.78313C3.95163 9.91167 4.11371 9.97602 4.27572 9.97602C4.43772 9.97602 4.59981 9.91175 4.72348 9.78313C4.97075 9.52597 4.97075 9.10903 4.72348 8.85196L4.29142 8.40261C5.6738 7.15818 7.43413 6.35624 9.36693 6.21155V6.96142C9.36693 7.32508 9.65033 7.6199 10.0001 7.6199C10.3498 7.6199 10.6332 7.32508 10.6332 6.96142V6.21155C12.566 6.35624 14.3263 7.15818 15.7087 8.40261L15.2767 8.85196C15.0294 9.10911 15.0294 9.52606 15.2767 9.78313C15.4004 9.91167 15.5625 9.97602 15.7245 9.97602C15.8865 9.97602 16.0485 9.91175 16.1722 9.78313L16.6042 9.33387C17.8009 10.7716 18.5721 12.6023 18.7112 14.6124H13.4129V14.6123Z" fill="#FFF"/>
</svg>
