<svg width="40" height="37" viewBox="0 0 40 37" fill="none" xmlns="http://www.w3.org/2000/svg">
<path d="M38.5824 36.4808H1.41765C0.634729 36.4808 0 35.8463 0 35.0632V1.41765C0 0.63454 0.634729 0 1.41765 0C2.20057 0 2.8353 0.63454 2.8353 1.41765V33.6455H38.5824C39.3653 33.6455 40 34.2801 40 35.0632C40 35.8463 39.3653 36.4808 38.5824 36.4808ZM35.6972 15.9618C35.332 15.6947 34.8609 15.618 34.4302 15.7554L25.3808 18.6387L22.2966 9.57367C22.1567 9.16236 21.836 8.838 21.4263 8.69359C21.0169 8.54861 20.5635 8.60002 20.1964 8.83252L14.8887 12.1918L8.16566 3.5823C7.7931 3.10541 7.15913 2.91714 6.58696 3.11429C6.0148 3.31125 5.63071 3.84977 5.63071 4.45482V29.7576C5.63071 30.5407 6.26544 31.1752 7.04836 31.1752H34.8606C35.6435 31.1752 36.2782 30.5407 36.2782 29.7576V17.1063C36.2782 16.654 36.0623 16.2289 35.6972 15.9618Z" fill="white"/>
</svg>
