<svg xmlns="http://www.w3.org/2000/svg" xmlns:xlink="http://www.w3.org/1999/xlink" width="500" zoomAndPan="magnify" viewBox="0 0 375 149.999998" height="200" preserveAspectRatio="xMidYMid meet" version="1.0"><defs><g/><clipPath id="id1"><path d="M 17.304688 21 L 111 21 L 111 129 L 17.304688 129 Z M 17.304688 21 " clip-rule="nonzero"/></clipPath><clipPath id="id2"><path d="M 30 18.734375 L 127.554688 18.734375 L 127.554688 131.234375 L 30 131.234375 Z M 30 18.734375 " clip-rule="nonzero"/></clipPath></defs><g clip-path="url(#id1)"><path fill="rgb(16.079712%, 27.839661%, 66.268921%)" d="M 17.371094 21.125 L 110.046875 75.699219 L 17.371094 128.90625 L 38.5625 75.015625 L 17.371094 21.125 " fill-opacity="1" fill-rule="nonzero"/></g><g clip-path="url(#id2)"><path fill="rgb(27.839661%, 29.019165%, 31.759644%)" d="M 31.269531 23.171875 C 37.679688 26.945312 44.089844 30.722656 50.503906 34.5 C 63.507812 42.15625 76.511719 49.8125 89.511719 57.46875 C 99.757812 63.503906 110.003906 69.535156 120.246094 75.566406 C 121.480469 76.292969 122.710938 77.019531 123.945312 77.742188 L 123.945312 73.652344 C 117.464844 77.371094 110.988281 81.089844 104.507812 84.808594 C 91.417969 92.328125 78.328125 99.84375 65.234375 107.359375 C 55.046875 113.210938 44.855469 119.058594 34.667969 124.910156 C 33.535156 125.558594 32.402344 126.210938 31.269531 126.859375 C 32.429688 127.753906 33.585938 128.644531 34.746094 129.539062 C 38.753906 119.347656 42.761719 109.15625 46.769531 98.964844 C 49.203125 92.769531 51.640625 86.574219 54.078125 80.378906 C 54.652344 78.914062 55.230469 77.449219 55.804688 75.984375 C 56.199219 74.984375 55.871094 74.210938 55.507812 73.296875 C 50.777344 61.269531 46.050781 49.238281 41.320312 37.214844 C 39.128906 31.640625 36.9375 26.066406 34.746094 20.496094 C 34.273438 19.292969 33.179688 18.46875 31.835938 18.839844 C 30.691406 19.15625 29.707031 20.550781 30.183594 21.753906 C 34.1875 31.945312 38.195312 42.136719 42.203125 52.324219 C 45.257812 60.097656 48.316406 67.871094 51.371094 75.644531 L 51.371094 74.386719 C 47.363281 84.574219 43.359375 94.765625 39.351562 104.957031 C 36.296875 112.730469 33.238281 120.5 30.183594 128.277344 C 29.382812 130.308594 32.003906 131.902344 33.660156 130.953125 C 40.136719 127.234375 46.613281 123.511719 53.09375 119.792969 C 66.183594 112.277344 79.277344 104.761719 92.371094 97.246094 C 102.558594 91.394531 112.75 85.542969 122.933594 79.691406 C 124.070312 79.042969 125.199219 78.394531 126.335938 77.742188 C 127.882812 76.855469 127.855469 74.546875 126.335938 73.652344 C 119.921875 69.875 113.511719 66.101562 107.097656 62.324219 C 94.09375 54.667969 81.09375 47.011719 68.089844 39.355469 C 57.847656 33.320312 47.597656 27.289062 37.355469 21.253906 C 36.125 20.53125 34.890625 19.804688 33.660156 19.078125 C 31.019531 17.527344 28.640625 21.621094 31.269531 23.171875 " fill-opacity="1" fill-rule="nonzero"/></g><g fill="rgb(16.079712%, 27.839661%, 66.268921%)" fill-opacity="1"><g transform="translate(136.299576, 88.124997)"><g><path d="M 32.8125 0 L 30.78125 -27.019531 L 26.210938 -27.019531 L 18 -5.949219 L 9.804688 -27.019531 L 5.277344 -27.019531 L 3.222656 0 L 6.582031 0 L 8.40625 -22.222656 L 16.984375 0 L 19.035156 0 L 27.671875 -22.296875 L 29.476562 0 Z M 32.8125 0 "/></g></g></g><g fill="rgb(16.079712%, 27.839661%, 66.268921%)" fill-opacity="1"><g transform="translate(172.33092, 88.124997)"><g><path d="M 15.8125 0.363281 C 23.355469 0.363281 29.226562 -4.875 29.226562 -13.527344 C 29.226562 -22.144531 23.355469 -27.382812 15.8125 -27.382812 C 8.195312 -27.382812 2.359375 -22.144531 2.359375 -13.527344 C 2.359375 -4.875 8.195312 0.363281 15.8125 0.363281 Z M 15.8125 -2.878906 C 10.207031 -2.878906 5.777344 -6.714844 5.777344 -13.527344 C 5.777344 -20.265625 10.207031 -24.101562 15.8125 -24.101562 C 21.378906 -24.101562 25.789062 -20.265625 25.789062 -13.527344 C 25.789062 -6.714844 21.378906 -2.878906 15.8125 -2.878906 Z M 15.8125 -2.878906 "/></g></g></g><g fill="rgb(16.079712%, 27.839661%, 66.268921%)" fill-opacity="1"><g transform="translate(203.911106, 88.124997)"><g><path d="M 22.394531 -27.019531 L 22.394531 -5.257812 L 7.828125 -27.019531 L 4.242188 -27.019531 L 4.242188 0 L 7.617188 0 L 7.617188 -21.855469 L 22.183594 0 L 25.808594 0 L 25.808594 -27.019531 Z M 22.394531 -27.019531 "/></g></g></g><g fill="rgb(16.079712%, 27.839661%, 66.268921%)" fill-opacity="1"><g transform="translate(233.956412, 88.124997)"><g><path d="M 4.242188 0 L 7.675781 0 L 7.675781 -27.019531 L 4.242188 -27.019531 Z M 4.242188 0 "/></g></g></g><g fill="rgb(27.839661%, 29.019165%, 31.759644%)" fill-opacity="1"><g transform="translate(245.869882, 88.124997)"><g><path d="M 18.363281 -27.019531 L 1.074219 -27.019531 L 1.074219 -23.890625 L 8.019531 -23.890625 L 8.019531 0 L 11.4375 0 L 11.4375 -23.890625 L 18.363281 -23.890625 Z M 18.363281 -27.019531 "/></g></g></g><g fill="rgb(27.839661%, 29.019165%, 31.759644%)" fill-opacity="1"><g transform="translate(265.305325, 88.124997)"><g><path d="M 18.730469 -23.890625 L 18.730469 -27.019531 L 4.242188 -27.019531 L 4.242188 0 L 18.730469 0 L 18.730469 -3.128906 L 7.753906 -3.128906 L 7.753906 -11.953125 L 17.425781 -11.953125 L 17.425781 -15.042969 L 7.753906 -15.042969 L 7.753906 -23.890625 Z M 18.730469 -23.890625 "/></g></g></g><g fill="rgb(27.839661%, 29.019165%, 31.759644%)" fill-opacity="1"><g transform="translate(286.371574, 88.124997)"><g><path d="M 15.8125 0.363281 C 21.148438 0.363281 25.636719 -2.265625 27.746094 -6.8125 L 24.582031 -8.097656 C 22.929688 -4.757812 19.667969 -2.917969 15.8125 -2.917969 C 10.207031 -2.917969 5.777344 -6.753906 5.777344 -13.527344 C 5.777344 -20.265625 10.207031 -24.101562 15.8125 -24.101562 C 19.667969 -24.101562 22.929688 -22.242188 24.582031 -18.902344 L 27.746094 -20.207031 C 25.636719 -24.734375 21.148438 -27.382812 15.8125 -27.382812 C 8.195312 -27.382812 2.359375 -22.144531 2.359375 -13.527344 C 2.359375 -4.875 8.195312 0.363281 15.8125 0.363281 Z M 15.8125 0.363281 "/></g></g></g><g fill="rgb(27.839661%, 29.019165%, 31.759644%)" fill-opacity="1"><g transform="translate(315.764554, 88.124997)"><g><path d="M 4.242188 0 L 7.695312 0 L 7.695312 -11.992188 L 21.378906 -11.992188 L 21.378906 0 L 24.8125 0 L 24.8125 -27.019531 L 21.378906 -27.019531 L 21.378906 -15.082031 L 7.695312 -15.082031 L 7.695312 -27.019531 L 4.242188 -27.019531 Z M 4.242188 0 "/></g></g></g></svg>