<svg width="35" height="35" viewBox="0 0 35 35" fill="none" xmlns="http://www.w3.org/2000/svg">
<path d="M29.9669 13.4283C29.9384 13.3915 29.9082 13.3556 29.8745 13.3217C29.8406 13.2881 29.8047 13.2578 29.7681 13.2293C26.6079 10.119 22.2755 8.19651 17.5019 8.19607C17.5013 8.19607 17.5007 8.19592 17.5007 8.19592C17.4994 8.19592 17.4988 8.19607 17.4982 8.19607C12.7245 8.19651 8.39211 10.119 5.23205 13.2293C5.19526 13.2578 5.15936 13.2879 5.12568 13.3217C5.09185 13.3556 5.06171 13.3915 5.0332 13.4283C1.92248 16.5888 0 20.9218 0 25.6961C0 26.308 0.495948 26.8041 1.10802 26.8041H33.892C34.5041 26.8041 35 26.308 35 25.6961C35 20.9218 33.0775 16.5888 29.9669 13.4283ZM17.5 21.8193C16.4136 21.8193 15.4321 22.2668 14.7283 22.9867L14.0306 22.6833C14.8743 21.713 16.1163 21.0978 17.5 21.0978C19.6535 21.0978 21.4652 22.5861 21.9625 24.588H21.2151C20.7384 22.987 19.2558 21.8193 17.5 21.8193ZM23.4725 24.588C22.95 21.7654 20.4716 19.6204 17.5 19.6204C15.5068 19.6204 13.7348 20.5855 12.6264 22.0726L6.351 19.3431C5.7896 19.0988 5.13691 19.3561 4.893 19.9172C4.64909 20.4783 4.906 21.1312 5.46725 21.3752L11.6489 24.064C11.6009 24.2358 11.5604 24.4106 11.5275 24.5882H2.25577C2.49909 21.2058 3.8488 18.1254 5.94295 15.7061L6.69892 16.462C6.91535 16.6783 7.199 16.7866 7.4825 16.7866C7.76601 16.7866 8.04966 16.6784 8.26609 16.462C8.69881 16.0293 8.69881 15.3277 8.26609 14.8951L7.50998 14.139C9.92915 12.045 13.0097 10.6956 16.3921 10.4521V11.7139C16.3921 12.3259 16.8881 12.822 17.5001 12.822C18.1122 12.822 18.6082 12.3259 18.6082 11.7139V10.4521C21.9906 10.6956 25.071 12.045 27.4903 14.139L26.7342 14.8951C26.3015 15.3278 26.3015 16.0294 26.7342 16.462C26.9506 16.6783 27.2343 16.7866 27.5178 16.7866C27.8013 16.7866 28.0849 16.6784 28.3014 16.462L29.0573 15.7061C31.1515 18.1254 32.5012 21.2058 32.7445 24.5882H23.4725V24.588Z" fill="#387ADD"/>
</svg>
