<svg width="35" height="35" viewBox="0 0 35 35" fill="none" xmlns="http://www.w3.org/2000/svg">
<path d="M34.9999 24.7168C34.9999 22.6688 34.3866 20.6912 33.2261 18.9979C32.3915 17.7799 31.3166 16.7685 30.071 16.0169C31.5375 14.6281 32.4551 12.6652 32.4551 10.4908C32.4551 6.29207 29.0391 2.8761 24.8405 2.8761C22.3508 2.8761 20.0187 4.1074 18.6021 6.12866C18.2421 6.07623 17.8743 6.04795 17.5 6.04795C17.1256 6.04795 16.7579 6.07632 16.3979 6.12866C14.9812 4.1074 12.6491 2.8761 10.1595 2.8761C5.9608 2.8761 2.54483 6.29207 2.54483 10.4908C2.54483 12.6652 3.46239 14.6281 4.92898 16.0169C3.6833 16.7684 2.60844 17.7799 1.77385 18.9978C0.613397 20.6912 0 22.6688 0 24.7168V28.9522H7.34056V32.124H27.6595V28.9522H35V24.7168H34.9999ZM24.8405 4.75547C28.003 4.75547 30.5758 7.3283 30.5758 10.4908C30.5758 13.6534 28.003 16.2262 24.8405 16.2262C24.7839 16.2262 24.7272 16.2254 24.6704 16.2237C24.6748 16.2117 24.6783 16.1993 24.6826 16.1873C24.7805 15.9098 24.8621 15.6247 24.9276 15.3335C24.9322 15.3128 24.9375 15.2923 24.9419 15.2715C24.9589 15.193 24.9739 15.1137 24.9884 15.0342C24.9953 14.9966 25.0023 14.9591 25.0086 14.9214C25.0205 14.8505 25.0312 14.7793 25.041 14.7078C25.0479 14.6581 25.0541 14.6084 25.06 14.5585C25.0674 14.4954 25.0747 14.4322 25.0806 14.3686C25.0866 14.3036 25.0911 14.2386 25.0954 14.1735C25.0988 14.1222 25.1031 14.0711 25.1054 14.0195C25.1106 13.9089 25.1135 13.7981 25.1139 13.6872C25.1139 13.679 25.1145 13.6711 25.1145 13.6628C25.1145 13.6584 25.1141 13.654 25.1141 13.6495C25.1139 13.5363 25.1107 13.4237 25.1056 13.3116C25.1041 13.2789 25.1021 13.2464 25.1002 13.2139C25.0947 13.1186 25.0875 13.0236 25.0785 12.9292C25.0765 12.9078 25.0748 12.8864 25.0726 12.865C24.7886 10.1204 23.0547 7.77125 20.5534 6.68465C21.6313 5.47373 23.1903 4.75547 24.8405 4.75547ZM15.5155 8.28119C15.5338 8.27452 15.5524 8.26822 15.5707 8.26165C15.6277 8.24126 15.6852 8.2219 15.743 8.2032C15.7868 8.1892 15.8309 8.17567 15.8752 8.1627C15.9075 8.15321 15.9398 8.1441 15.9722 8.13508C16.0301 8.1192 16.0882 8.10369 16.147 8.0895C16.5811 7.98408 17.0338 7.92685 17.4998 7.92685C17.9661 7.92723 18.419 7.98455 18.8532 8.08997C18.9116 8.10407 18.9694 8.11948 19.027 8.13526C19.0598 8.14438 19.0927 8.15359 19.1253 8.16327C19.1691 8.17614 19.2127 8.18948 19.256 8.20329C19.3146 8.22218 19.3727 8.24173 19.4304 8.2624C19.4482 8.26869 19.466 8.27471 19.4836 8.28119C21.4017 8.99052 22.8398 10.6976 23.1653 12.7692C23.1679 12.7857 23.1703 12.8024 23.1727 12.819C23.1832 12.8892 23.1919 12.9599 23.1997 13.0309C23.2025 13.057 23.2055 13.083 23.2081 13.1092C23.2143 13.174 23.2189 13.2392 23.223 13.3046C23.2247 13.3326 23.2271 13.3605 23.2284 13.3886C23.2323 13.4721 23.2345 13.5561 23.2348 13.6406C23.2348 13.6479 23.2352 13.6551 23.2352 13.6624C23.2352 13.6658 23.235 13.6693 23.235 13.6727C23.2349 13.7544 23.2324 13.8356 23.2288 13.9165C23.2277 13.942 23.2266 13.9674 23.2251 13.9928C23.2207 14.071 23.2148 14.1488 23.2073 14.226C23.2044 14.2559 23.2005 14.2857 23.1971 14.3155C23.1914 14.3655 23.185 14.4153 23.178 14.465C23.1726 14.5036 23.1671 14.5423 23.1609 14.5807C23.1514 14.6393 23.1409 14.6974 23.1296 14.7554C23.1196 14.807 23.1086 14.8584 23.0971 14.9097C23.0902 14.9406 23.0831 14.9715 23.0757 15.0022C23.0574 15.0785 23.0373 15.1542 23.0158 15.2296C23.0073 15.2596 22.9993 15.2898 22.9903 15.3195C22.9772 15.3627 22.9631 15.4055 22.9491 15.4484C22.9378 15.4827 22.9263 15.5168 22.9143 15.5508C22.9008 15.5894 22.8875 15.6281 22.8732 15.6665C22.8489 15.7316 22.8233 15.7962 22.7967 15.8601C22.7849 15.8887 22.7723 15.917 22.76 15.9455C22.7368 15.9987 22.7129 16.0517 22.6881 16.1042C22.6852 16.1104 22.6823 16.1166 22.6793 16.1228C22.6704 16.1414 22.6616 16.1601 22.6525 16.1787C22.6247 16.2354 22.5957 16.2915 22.566 16.3472C22.5545 16.3688 22.5433 16.3907 22.5314 16.4122C22.5307 16.4136 22.5299 16.4149 22.5292 16.4162C22.4967 16.4754 22.4628 16.5337 22.4283 16.5916C22.4146 16.6145 22.401 16.6375 22.387 16.6601C22.3494 16.7211 22.3108 16.7815 22.2711 16.8408C22.2464 16.8778 22.2205 16.9139 22.195 16.9503C22.1733 16.9811 22.1516 17.012 22.1294 17.0424C22.1005 17.0817 22.0711 17.1205 22.0412 17.1591C22.0209 17.1853 22.0005 17.2113 21.9798 17.2373C21.9482 17.2767 21.9164 17.316 21.8838 17.3546C21.8636 17.3786 21.8429 17.4021 21.8223 17.4257C21.7885 17.4645 21.7547 17.5034 21.72 17.5412C21.6993 17.5637 21.6779 17.5853 21.6568 17.6075C21.6003 17.6672 21.5424 17.7255 21.4834 17.7827C21.4483 17.8167 21.4135 17.8507 21.3776 17.8837C21.3528 17.9065 21.3273 17.9287 21.302 17.9511C21.2609 17.9877 21.2194 18.0238 21.1772 18.0592C21.1558 18.0771 21.1342 18.0949 21.1125 18.1125C21.0615 18.1541 21.0098 18.1948 20.9573 18.2346C20.943 18.2454 20.9289 18.2564 20.9145 18.2671C19.9598 18.9768 18.7781 19.3975 17.4999 19.3975C16.2215 19.3975 15.0396 18.9767 14.0849 18.2668C14.0708 18.2563 14.057 18.2455 14.043 18.2349C13.9903 18.195 13.9383 18.154 13.8871 18.1123C13.8656 18.0947 13.8441 18.0771 13.8229 18.0593C13.7805 18.0238 13.7389 17.9874 13.6976 17.9507C13.6725 17.9284 13.6471 17.9064 13.6224 17.8837C13.5864 17.8506 13.5515 17.8165 13.5163 17.7825C13.4571 17.7251 13.3991 17.6666 13.3423 17.6067C13.3216 17.5848 13.3003 17.5635 13.2799 17.5413C13.2451 17.5034 13.2113 17.4644 13.1775 17.4256C13.1569 17.402 13.1363 17.3786 13.1161 17.3546C13.0835 17.316 13.0517 17.2767 13.0201 17.2374C12.9995 17.2114 12.9789 17.1854 12.9586 17.1591C12.9288 17.1206 12.8994 17.0818 12.8705 17.0425C12.8483 17.012 12.8266 16.981 12.8049 16.9501C12.7793 16.9139 12.7535 16.8778 12.7289 16.8409C12.689 16.7813 12.6502 16.7208 12.6125 16.6596C12.5987 16.6371 12.5854 16.6145 12.5718 16.5918C12.5368 16.5331 12.5025 16.4741 12.4695 16.4141C12.4574 16.392 12.4459 16.3695 12.434 16.3473C12.4043 16.2915 12.3752 16.2352 12.3473 16.1784C12.3374 16.1582 12.3277 16.1378 12.318 16.1175C12.3165 16.1144 12.3151 16.1113 12.3137 16.1082C12.2877 16.0533 12.2628 15.9979 12.2384 15.942C12.2269 15.9154 12.2151 15.8889 12.204 15.8622C12.1768 15.7968 12.1508 15.7308 12.1259 15.6643C12.1124 15.6284 12.1 15.5922 12.0873 15.556C12.0743 15.5189 12.0617 15.4815 12.0494 15.444C12.0361 15.4034 12.0228 15.3628 12.0104 15.322C11.9919 15.261 11.9744 15.1997 11.958 15.1379C11.9464 15.0946 11.936 15.0509 11.9253 15.0073C11.9171 14.973 11.9091 14.9387 11.9015 14.9042C11.8921 14.862 11.8826 14.8198 11.8741 14.7773C11.8611 14.7111 11.8491 14.6446 11.8384 14.5777C11.8326 14.5416 11.8275 14.5055 11.8224 14.4694C11.8148 14.4159 11.8079 14.3622 11.8018 14.3082C11.7988 14.2816 11.7953 14.255 11.7926 14.2285C11.7848 14.1492 11.7789 14.0695 11.7743 13.9894C11.773 13.9664 11.772 13.9434 11.771 13.9203C11.7671 13.8347 11.7644 13.7489 11.7644 13.6624C11.7644 13.5698 11.767 13.4778 11.7714 13.3862C11.7727 13.3613 11.7747 13.3365 11.7761 13.3117C11.7803 13.243 11.7852 13.1744 11.7918 13.1061C11.7941 13.0824 11.7968 13.0587 11.7993 13.035C11.8074 12.9612 11.8165 12.8877 11.8274 12.8147C11.8295 12.8005 11.8316 12.7862 11.8338 12.772C12.1583 10.6992 13.5967 8.99099 15.5155 8.28119ZM4.42411 10.4908C4.42411 7.3284 6.99694 4.75547 10.1595 4.75547C11.8098 4.75547 13.3687 5.47383 14.4466 6.68446C11.9444 7.77144 10.2101 10.1218 9.92702 12.8675C9.92504 12.8861 9.92363 12.9048 9.92185 12.9235C9.91245 13.0213 9.90503 13.1195 9.89939 13.2182C9.8977 13.2483 9.89582 13.2783 9.89441 13.3085C9.88906 13.426 9.88539 13.5439 9.88539 13.6627C9.88539 13.7826 9.88887 13.9022 9.89451 14.0217C9.89676 14.0698 9.90071 14.1175 9.90381 14.1653C9.90841 14.2341 9.91311 14.3029 9.9195 14.3715C9.92514 14.4325 9.93209 14.4931 9.93923 14.5537C9.94543 14.6065 9.95201 14.6591 9.95934 14.7117C9.96892 14.7808 9.97926 14.8496 9.99063 14.9181C9.99749 14.9587 10.005 14.9993 10.0124 15.0399C10.0265 15.1166 10.0409 15.1931 10.0573 15.2689C10.0627 15.2939 10.0689 15.3187 10.0745 15.3436C10.1383 15.6258 10.2176 15.902 10.3119 16.1714C10.3179 16.1888 10.3232 16.2064 10.3293 16.2237C10.2726 16.2254 10.2159 16.2262 10.1593 16.2262C6.99694 16.2261 4.42411 13.6533 4.42411 10.4908ZM8.91606 22.4714C8.89539 22.504 8.87565 22.5371 8.85536 22.5699C8.81242 22.6393 8.76985 22.7088 8.72869 22.779C8.70567 22.8182 8.6835 22.8576 8.66113 22.8971C8.62411 22.9622 8.58756 23.0275 8.55204 23.0934C8.52968 23.1348 8.50769 23.1765 8.48589 23.2181C8.45169 23.2836 8.41833 23.3494 8.38563 23.4155C8.36505 23.457 8.34457 23.4985 8.32465 23.5402C8.29138 23.6098 8.25934 23.68 8.22768 23.7503C8.21048 23.7885 8.19282 23.8265 8.17618 23.8649C8.13954 23.9491 8.10458 24.034 8.07029 24.1191C8.06023 24.144 8.04952 24.1686 8.03975 24.1935C7.99624 24.3041 7.95462 24.4155 7.91515 24.5274C7.90613 24.553 7.89805 24.579 7.88912 24.6046C7.85943 24.6909 7.83049 24.7774 7.80315 24.8643C7.79065 24.9043 7.77909 24.9444 7.76707 24.9844C7.74498 25.0581 7.72328 25.1319 7.70289 25.2061C7.69077 25.2502 7.67921 25.2945 7.66765 25.3389C7.64905 25.4101 7.63119 25.4815 7.61428 25.5532C7.60347 25.5986 7.59295 25.644 7.5829 25.6894C7.56673 25.7621 7.55161 25.835 7.53704 25.908C7.5283 25.9519 7.51928 25.9958 7.51111 26.0398C7.49636 26.1193 7.48311 26.1992 7.47023 26.2792C7.46422 26.3167 7.45755 26.3541 7.45191 26.3917C7.43443 26.5092 7.41855 26.6269 7.40521 26.7452C7.40502 26.7466 7.40493 26.748 7.40483 26.7494C7.39271 26.857 7.38228 26.9648 7.37354 27.073H1.87928V24.7168C1.87928 21.4978 3.72981 18.6079 6.62897 17.2344C7.68513 17.7895 8.88571 18.1055 10.1594 18.1055C10.5277 18.1055 10.8972 18.0783 11.2638 18.0243C11.321 18.1058 11.379 18.1864 11.4392 18.2655C11.4595 18.2921 11.4805 18.3181 11.5012 18.3444C11.5606 18.4203 11.6208 18.4954 11.683 18.5689C11.7085 18.5991 11.7346 18.6286 11.7605 18.6584C11.8188 18.7253 11.878 18.7913 11.9385 18.8561C11.9703 18.8902 12.0026 18.9237 12.0349 18.9573C12.0903 19.0143 12.1464 19.0705 12.2034 19.1259C12.2248 19.1466 12.245 19.1686 12.2666 19.1892C12.185 19.2385 12.1041 19.2891 12.0239 19.3407C12.0109 19.349 11.9981 19.3579 11.9851 19.3663C11.905 19.4184 11.8257 19.4716 11.7471 19.5258C11.7199 19.5446 11.6929 19.5635 11.6658 19.5825C11.5958 19.6319 11.5266 19.682 11.4579 19.7331C11.4362 19.7492 11.4142 19.765 11.3927 19.7814C11.3053 19.8474 11.2189 19.9147 11.1337 19.9835C11.1151 19.9985 11.0969 20.014 11.0783 20.0292C11.0104 20.0848 10.9432 20.1412 10.8769 20.1986C10.8512 20.2207 10.8256 20.2431 10.8 20.2655C10.7336 20.3241 10.668 20.3835 10.6031 20.4437C10.5862 20.4594 10.5689 20.4748 10.5521 20.4907C10.4724 20.5657 10.3939 20.6421 10.3166 20.7198C10.2965 20.74 10.2768 20.7605 10.2569 20.7808C10.1977 20.8413 10.1392 20.9023 10.0814 20.9643C10.0585 20.9889 10.0355 21.0135 10.0128 21.0384C9.94778 21.1094 9.8837 21.1814 9.82065 21.2544C9.81078 21.2659 9.80054 21.277 9.79068 21.2885C9.71879 21.3724 9.64851 21.458 9.57916 21.5443C9.5598 21.5684 9.54092 21.5928 9.52184 21.6171C9.46969 21.6834 9.41829 21.7503 9.36774 21.8178C9.3482 21.844 9.32856 21.8699 9.3093 21.8962C9.24315 21.9864 9.17784 22.0774 9.11442 22.1699C9.04629 22.2693 8.98033 22.37 8.91606 22.4714ZM9.21984 30.2448V28.9523V27.8887C9.21984 27.7844 9.22182 27.6804 9.22567 27.5768C9.22689 27.5427 9.22962 27.5089 9.23131 27.4748C9.23469 27.4057 9.23788 27.3364 9.24296 27.2676C9.24606 27.2257 9.25076 27.1843 9.25452 27.1426C9.25997 27.0819 9.26485 27.0211 9.27162 26.9608C9.2766 26.9166 9.28308 26.8727 9.28872 26.8287C9.29605 26.7712 9.30291 26.7137 9.31136 26.6566C9.31822 26.6111 9.32649 26.566 9.33401 26.5207C9.34322 26.4657 9.35177 26.4104 9.36211 26.3556C9.37084 26.3093 9.38099 26.2635 9.39048 26.2173C9.40138 26.1641 9.41181 26.1108 9.42375 26.058C9.43427 26.0114 9.4463 25.9652 9.45757 25.9188C9.47026 25.8671 9.48238 25.8152 9.496 25.7638C9.50841 25.7171 9.52213 25.6708 9.53528 25.6245C9.54956 25.574 9.56347 25.5235 9.57869 25.4734C9.59288 25.4268 9.60848 25.3806 9.62342 25.3342C9.63939 25.2851 9.6549 25.2359 9.67172 25.1871C9.68769 25.141 9.70489 25.0952 9.72161 25.0494C9.73928 25.0011 9.75657 24.9527 9.77508 24.9047C9.79274 24.8592 9.81153 24.8142 9.82986 24.7689C9.84912 24.7216 9.8681 24.6741 9.88821 24.6272C9.90766 24.582 9.92814 24.5372 9.94835 24.4925C9.96911 24.4464 9.98969 24.4001 10.0113 24.3544C10.0324 24.3098 10.0546 24.2657 10.0765 24.2214C10.0989 24.1763 10.121 24.1311 10.1441 24.0865C10.1669 24.0425 10.1907 23.9991 10.2143 23.9556C10.2381 23.9115 10.2617 23.8675 10.2863 23.8239C10.3108 23.7806 10.3361 23.7381 10.3612 23.6953C10.3866 23.6523 10.4118 23.6092 10.438 23.5665C10.464 23.5241 10.4909 23.4824 10.5177 23.4405C10.5445 23.3985 10.5712 23.3565 10.5989 23.315C10.6265 23.2734 10.6549 23.2325 10.6832 23.1915C10.7115 23.1506 10.7397 23.1097 10.7687 23.0693C10.7978 23.0287 10.8278 22.9887 10.8577 22.9486C10.8874 22.9088 10.917 22.8691 10.9474 22.8299C10.978 22.7904 11.0094 22.7514 11.0408 22.7123C11.0719 22.6736 11.1031 22.6349 11.1348 22.5968C11.1669 22.5585 11.1996 22.5206 11.2323 22.4828C11.2649 22.4451 11.2976 22.4075 11.3309 22.3702C11.3643 22.333 11.3984 22.2964 11.4324 22.2597C11.4664 22.2232 11.5004 22.1868 11.5351 22.1509C11.5699 22.1149 11.6053 22.0793 11.6408 22.0439C11.6763 22.0085 11.7119 21.9732 11.7479 21.9384C11.7839 21.9037 11.8205 21.8695 11.8572 21.8354C11.8941 21.8012 11.9311 21.7671 11.9686 21.7335C12.006 21.7 12.0437 21.667 12.0818 21.6342C12.1199 21.6012 12.1584 21.5685 12.1972 21.5361C12.2358 21.504 12.2748 21.4723 12.3141 21.4408C12.3536 21.4091 12.3935 21.3776 12.4337 21.3465C12.4734 21.3159 12.5136 21.2856 12.5539 21.2556C12.5948 21.225 12.6361 21.1949 12.6778 21.1651C12.7186 21.1358 12.7598 21.1071 12.8012 21.0785C12.8437 21.0493 12.8863 21.0205 12.9294 20.992C12.9712 20.9644 13.0134 20.937 13.0557 20.91C13.0996 20.8821 13.1438 20.8546 13.1882 20.8275C13.2311 20.8014 13.2742 20.7756 13.3176 20.7502C13.3627 20.7238 13.4082 20.6978 13.454 20.6721C13.4978 20.6475 13.542 20.6232 13.5864 20.5993C13.633 20.5743 13.6798 20.5498 13.727 20.5255C13.7717 20.5025 13.8167 20.4799 13.8619 20.4576C13.8976 20.4401 13.9335 20.4232 13.9695 20.4062C15.0256 20.9614 16.2264 21.2773 17.5 21.2773C18.7736 21.2773 19.9743 20.9614 21.0304 20.4062C21.0661 20.4231 21.1018 20.4399 21.1371 20.4572C21.183 20.4798 21.2283 20.5027 21.2736 20.5259C21.3202 20.5499 21.3667 20.5741 21.4127 20.5988C21.4576 20.623 21.5023 20.6476 21.5466 20.6725C21.5918 20.6979 21.6367 20.7235 21.6813 20.7497C21.7253 20.7754 21.769 20.8016 21.8124 20.8281C21.8563 20.8549 21.8998 20.882 21.943 20.9095C21.9861 20.9368 22.0287 20.9645 22.0711 20.9925C22.1137 21.0206 22.1559 21.0492 22.1978 21.0781C22.2396 21.1069 22.2812 21.1359 22.3225 21.1654C22.3637 21.1949 22.4045 21.2248 22.4451 21.2551C22.4859 21.2853 22.5264 21.3159 22.5665 21.3469C22.6063 21.3777 22.6458 21.4089 22.6851 21.4404C22.7245 21.472 22.7638 21.5039 22.8027 21.5362C22.8413 21.5684 22.8795 21.601 22.9174 21.6338C22.9557 21.6667 22.9937 21.6999 23.0313 21.7336C23.0685 21.767 23.1053 21.8008 23.1418 21.8347C23.1789 21.8691 23.2158 21.9037 23.2521 21.9388C23.2879 21.9732 23.3232 22.0082 23.3582 22.0433C23.3939 22.079 23.4296 22.1148 23.4647 22.151C23.4991 22.1867 23.533 22.2228 23.5667 22.2591C23.6011 22.296 23.6354 22.333 23.6691 22.3705C23.7021 22.4074 23.7346 22.4447 23.7669 22.4821C23.7999 22.5201 23.8328 22.5583 23.8651 22.597C23.8967 22.6349 23.9277 22.6733 23.9586 22.7117C23.9901 22.751 24.0217 22.7902 24.0525 22.83C24.0828 22.869 24.1122 22.9086 24.1417 22.9481C24.1718 22.9883 24.2018 23.0287 24.2312 23.0694C24.26 23.1096 24.2881 23.1503 24.3162 23.191C24.3447 23.2322 24.3732 23.2733 24.401 23.3151C24.4284 23.3563 24.4549 23.398 24.4816 23.4397C24.5085 23.4819 24.5356 23.524 24.5618 23.5667C24.5878 23.6089 24.6127 23.6517 24.6379 23.6944C24.6633 23.7374 24.6889 23.7804 24.7134 23.8239C24.7379 23.8673 24.7614 23.9113 24.7852 23.955C24.8089 23.9987 24.8327 24.0423 24.8556 24.0864C24.8787 24.1309 24.9007 24.1761 24.923 24.2211C24.9449 24.2654 24.9672 24.3096 24.9883 24.3543C25.0099 24.4 25.0304 24.4461 25.0511 24.4921C25.0714 24.5372 25.092 24.5819 25.1114 24.6273C25.1314 24.6738 25.1501 24.7209 25.1693 24.7678C25.1879 24.8135 25.2069 24.859 25.2246 24.905C25.2431 24.9527 25.2603 25.0009 25.2778 25.049C25.2946 25.0949 25.3118 25.1407 25.3278 25.187C25.3447 25.236 25.3603 25.2855 25.3763 25.3348C25.3912 25.3809 25.4067 25.4269 25.4208 25.4734C25.4362 25.5235 25.45 25.5741 25.4643 25.6246C25.4775 25.6709 25.4912 25.7171 25.5036 25.7638C25.5172 25.8152 25.5294 25.867 25.5421 25.9188C25.5534 25.9651 25.5654 26.0114 25.5759 26.058C25.5878 26.1108 25.5981 26.164 25.6091 26.2171C25.6186 26.2633 25.6288 26.3092 25.6375 26.3556C25.6478 26.4099 25.6562 26.4647 25.6654 26.5194C25.673 26.5652 25.6815 26.6107 25.6884 26.6567C25.6968 26.7134 25.7036 26.7705 25.7109 26.8274C25.7166 26.8719 25.7232 26.916 25.7282 26.9607C25.735 27.021 25.7398 27.0818 25.7453 27.1425C25.7491 27.1842 25.7538 27.2257 25.7569 27.2675C25.762 27.3363 25.7651 27.4057 25.7685 27.4749C25.7702 27.5089 25.7729 27.5427 25.7741 27.5767C25.778 27.6803 25.78 27.7843 25.78 27.8886V28.9521V30.2448H9.21984ZM27.6268 27.073C27.6084 26.8441 27.5819 26.6166 27.5483 26.3905C27.5429 26.3547 27.5365 26.3192 27.5308 26.2835C27.5177 26.2016 27.5041 26.12 27.489 26.0386C27.481 25.9958 27.4723 25.9531 27.4637 25.9103C27.449 25.836 27.4335 25.7619 27.4171 25.688C27.4071 25.6435 27.3968 25.5989 27.3863 25.5546C27.3691 25.4821 27.351 25.4098 27.3323 25.3377C27.3209 25.294 27.3095 25.2504 27.2975 25.2068C27.2769 25.1319 27.2549 25.0572 27.2326 24.9827C27.2207 24.9435 27.2094 24.9041 27.1971 24.8649C27.1694 24.7767 27.1401 24.6889 27.1099 24.6013C27.1015 24.5769 27.0938 24.5522 27.0851 24.5278C27.0455 24.4155 27.0039 24.3038 26.9602 24.1929C26.9508 24.1691 26.9405 24.1456 26.9309 24.1218C26.8963 24.0357 26.8607 23.9497 26.8236 23.8644C26.8072 23.8265 26.7898 23.7891 26.7729 23.7514C26.7409 23.6804 26.7086 23.6096 26.675 23.5393C26.6553 23.4982 26.635 23.4573 26.6148 23.4164C26.5819 23.3497 26.5481 23.2833 26.5136 23.2172C26.492 23.1759 26.4703 23.1347 26.4481 23.0937C26.4124 23.0276 26.3758 22.962 26.3386 22.8966C26.3162 22.8574 26.2941 22.8181 26.2713 22.7791C26.23 22.7085 26.1872 22.6387 26.144 22.569C26.1239 22.5365 26.1043 22.5037 26.0838 22.4714C26.0195 22.3701 25.9535 22.2694 25.8853 22.1699C25.8218 22.0773 25.7565 21.9863 25.6903 21.8961C25.6712 21.87 25.6516 21.8441 25.6323 21.8182C25.5814 21.7503 25.5298 21.6832 25.4775 21.6167C25.4586 21.5927 25.4399 21.5685 25.4207 21.5447C25.3513 21.458 25.2807 21.3724 25.2087 21.2883C25.1993 21.2774 25.1896 21.2667 25.1802 21.2558C25.1167 21.1823 25.052 21.1097 24.9865 21.0381C24.964 21.0135 24.9413 20.9892 24.9186 20.9647C24.8605 20.9024 24.8016 20.8409 24.742 20.7802C24.7224 20.7602 24.7031 20.74 24.6833 20.7201C24.6058 20.6423 24.5271 20.5657 24.4472 20.4905C24.4307 20.475 24.4138 20.46 24.3973 20.4445C24.332 20.3839 24.266 20.3243 24.1993 20.2655C24.1739 20.2431 24.1484 20.2209 24.1228 20.1987C24.0563 20.1413 23.9891 20.0849 23.9212 20.0292C23.9027 20.0141 23.8845 19.9986 23.8659 19.9836C23.7808 19.9148 23.6944 19.8475 23.6071 19.7815C23.5853 19.7651 23.5632 19.7491 23.5413 19.7329C23.4729 19.6821 23.404 19.6321 23.3343 19.5831C23.3069 19.5638 23.2796 19.5447 23.2521 19.5257C23.1743 19.472 23.0959 19.4194 23.0166 19.3679C23.0027 19.3589 22.989 19.3495 22.9751 19.3406C22.8951 19.2892 22.8145 19.2387 22.7329 19.1895C22.754 19.1695 22.7737 19.1481 22.7944 19.1278C22.8527 19.0715 22.9099 19.0141 22.9663 18.9559C22.9978 18.9234 23.0291 18.8908 23.0599 18.8577C23.1214 18.7919 23.1814 18.7248 23.2406 18.6569C23.2658 18.628 23.291 18.5994 23.3158 18.5701C23.3788 18.4955 23.4401 18.4192 23.5003 18.3421C23.52 18.3169 23.5402 18.2921 23.5596 18.2667C23.62 18.1873 23.6784 18.1063 23.7358 18.0245C24.1024 18.0783 24.4719 18.1056 24.8402 18.1056C26.1139 18.1056 27.3146 17.7897 28.3706 17.2345C31.2699 18.608 33.1203 21.4979 33.1203 24.7169V27.073H27.6268Z" fill="#387ADD"/>
</svg>
