<svg xmlns="http://www.w3.org/2000/svg" width="375" viewBox="0 0 375 375" height="375" version="1.0"><defs><clipPath id="a"><path d="M 147.273438 113 L 215 113 L 215 192 L 147.273438 192 Z M 147.273438 113"/></clipPath><clipPath id="b"><path d="M 156 111.269531 L 227.523438 111.269531 L 227.523438 193.019531 L 156 193.019531 Z M 156 111.269531"/></clipPath></defs><path fill="#FFF" d="M-37.5 -37.5H412.5V412.5H-37.5z"/><path fill="#FFF" d="M-37.5 -37.5H412.5V412.5H-37.5z"/><path fill="#F2F2F2" d="M-37.5 -37.5H412.5V412.5H-37.5z"/><g clip-path="url(#a)"><path fill="#FFE36C" d="M 147.320312 113.007812 L 214.78125 152.664062 L 147.320312 191.328125 L 162.746094 152.167969 L 147.320312 113.007812"/></g><g clip-path="url(#b)"><path fill="#474A51" d="M 157.4375 114.496094 C 162.105469 117.238281 166.769531 119.980469 171.4375 122.726562 C 180.902344 128.289062 190.367188 133.855469 199.832031 139.417969 C 207.289062 143.800781 214.746094 148.1875 222.203125 152.570312 C 223.101562 153.09375 224 153.625 224.894531 154.152344 L 224.894531 151.175781 C 220.179688 153.878906 215.464844 156.582031 210.75 159.285156 C 201.21875 164.746094 191.691406 170.210938 182.160156 175.671875 C 174.742188 179.921875 167.328125 184.171875 159.910156 188.425781 C 159.085938 188.898438 158.261719 189.371094 157.4375 189.84375 C 158.28125 190.492188 159.125 191.140625 159.96875 191.789062 C 162.882812 184.382812 165.800781 176.976562 168.71875 169.574219 C 170.492188 165.070312 172.265625 160.570312 174.039062 156.066406 C 174.457031 155 174.878906 153.9375 175.296875 152.871094 C 175.582031 152.144531 175.34375 151.582031 175.082031 150.921875 C 171.636719 142.179688 168.195312 133.4375 164.753906 124.699219 C 163.15625 120.648438 161.5625 116.597656 159.96875 112.550781 C 159.625 111.679688 158.828125 111.078125 157.847656 111.347656 C 157.015625 111.578125 156.300781 112.589844 156.644531 113.464844 C 159.5625 120.871094 162.480469 128.273438 165.394531 135.679688 C 167.621094 141.328125 169.847656 146.976562 172.070312 152.625 L 172.070312 151.710938 C 169.152344 159.113281 166.234375 166.519531 163.320312 173.925781 C 161.09375 179.574219 158.871094 185.222656 156.644531 190.871094 C 156.0625 192.347656 157.96875 193.503906 159.175781 192.816406 C 163.890625 190.113281 168.605469 187.410156 173.324219 184.707031 C 182.851562 179.246094 192.382812 173.785156 201.910156 168.320312 C 209.328125 164.070312 216.746094 159.820312 224.160156 155.566406 C 224.984375 155.097656 225.808594 154.625 226.636719 154.152344 C 227.761719 153.503906 227.742188 151.828125 226.636719 151.175781 C 221.96875 148.433594 217.300781 145.691406 212.632812 142.945312 C 203.167969 137.382812 193.703125 131.816406 184.238281 126.253906 C 176.78125 121.871094 169.324219 117.488281 161.867188 113.101562 C 160.96875 112.574219 160.074219 112.046875 159.175781 111.519531 C 157.257812 110.390625 155.523438 113.371094 157.4375 114.496094"/></g><g fill="#FFE36C"><g><g><path d="M 20.039062 0 L 18.796875 -16.5 L 16.007812 -16.5 L 10.992188 -3.632812 L 5.988281 -16.5 L 3.222656 -16.5 L 1.96875 0 L 4.019531 0 L 5.132812 -13.570312 L 10.371094 0 L 11.625 0 L 16.898438 -13.617188 L 18 0 Z M 20.039062 0" transform="translate(123.82 234.354)"/></g></g><g><g><path d="M 9.65625 0.222656 C 14.261719 0.222656 17.847656 -2.976562 17.847656 -8.261719 C 17.847656 -13.523438 14.261719 -16.722656 9.65625 -16.722656 C 5.003906 -16.722656 1.441406 -13.523438 1.441406 -8.261719 C 1.441406 -2.976562 5.003906 0.222656 9.65625 0.222656 Z M 9.65625 -1.757812 C 6.234375 -1.757812 3.527344 -4.101562 3.527344 -8.261719 C 3.527344 -12.375 6.234375 -14.71875 9.65625 -14.71875 C 13.054688 -14.71875 15.75 -12.375 15.75 -8.261719 C 15.75 -4.101562 13.054688 -1.757812 9.65625 -1.757812 Z M 9.65625 -1.757812" transform="translate(145.828 234.354)"/></g></g><g><g><path d="M 13.675781 -16.5 L 13.675781 -3.210938 L 4.78125 -16.5 L 2.589844 -16.5 L 2.589844 0 L 4.652344 0 L 4.652344 -13.347656 L 13.546875 0 L 15.761719 0 L 15.761719 -16.5 Z M 13.675781 -16.5" transform="translate(165.117 234.354)"/></g></g><g><g><path d="M 2.589844 0 L 4.6875 0 L 4.6875 -16.5 L 2.589844 -16.5 Z M 2.589844 0" transform="translate(183.469 234.354)"/></g></g></g><g fill="#474A51"><g><g><path d="M 11.214844 -16.5 L 0.65625 -16.5 L 0.65625 -14.589844 L 4.898438 -14.589844 L 4.898438 0 L 6.984375 0 L 6.984375 -14.589844 L 11.214844 -14.589844 Z M 11.214844 -16.5" transform="translate(190.746 234.354)"/></g></g><g><g><path d="M 11.4375 -14.589844 L 11.4375 -16.5 L 2.589844 -16.5 L 2.589844 0 L 11.4375 0 L 11.4375 -1.910156 L 4.734375 -1.910156 L 4.734375 -7.300781 L 10.640625 -7.300781 L 10.640625 -9.1875 L 4.734375 -9.1875 L 4.734375 -14.589844 Z M 11.4375 -14.589844" transform="translate(202.617 234.354)"/></g></g><g><g><path d="M 9.65625 0.222656 C 12.914062 0.222656 15.65625 -1.382812 16.945312 -4.160156 L 15.011719 -4.945312 C 14.003906 -2.90625 12.011719 -1.78125 9.65625 -1.78125 C 6.234375 -1.78125 3.527344 -4.125 3.527344 -8.261719 C 3.527344 -12.375 6.234375 -14.71875 9.65625 -14.71875 C 12.011719 -14.71875 14.003906 -13.582031 15.011719 -11.542969 L 16.945312 -12.339844 C 15.65625 -15.105469 12.914062 -16.722656 9.65625 -16.722656 C 5.003906 -16.722656 1.441406 -13.523438 1.441406 -8.261719 C 1.441406 -2.976562 5.003906 0.222656 9.65625 0.222656 Z M 9.65625 0.222656" transform="translate(215.484 234.354)"/></g></g><g><g><path d="M 2.589844 0 L 4.699219 0 L 4.699219 -7.324219 L 13.054688 -7.324219 L 13.054688 0 L 15.152344 0 L 15.152344 -16.5 L 13.054688 -16.5 L 13.054688 -9.210938 L 4.699219 -9.210938 L 4.699219 -16.5 L 2.589844 -16.5 Z M 2.589844 0" transform="translate(233.437 234.354)"/></g></g></g></svg>