<svg width="20" height="20" viewBox="0 0 20 20" fill="none" xmlns="http://www.w3.org/2000/svg">
<path d="M18.6589 1.34294C17.7934 0.477579 16.6422 0 15.4215 0C14.1968 0 13.0455 0.477579 12.1801 1.34294L1.52487 11.9966C1.40648 12.115 1.32891 12.2619 1.29625 12.4252L0.0143612 19.0093C-0.0387107 19.2828 0.0592681 19.5522 0.242978 19.7563C0.516503 20.0665 0.936995 19.9971 0.990067 19.9849L7.57506 18.7031C7.73836 18.6705 7.88941 18.5929 8.00372 18.4746L18.6589 7.82087C20.447 6.03709 20.447 3.12672 18.6589 1.34294V1.34294ZM7.0076 17.1153L1.88821 18.1154L2.88432 12.9967L11.3391 4.54313L15.4624 8.66582L7.0076 17.1153V17.1153ZM17.4832 6.64529L16.6422 7.48616L12.5189 3.36346L13.3599 2.5226C15.2215 0.889849 16.8626 1.90215 17.4832 2.5226C18.6181 3.65736 18.6181 5.50645 17.4832 6.64529Z" fill="#5A5858"/>
</svg>
