<svg width="20" height="20" viewBox="0 0 20 20" fill="none" xmlns="http://www.w3.org/2000/svg">
<path d="M16.6663 2.48938H12.7501C12.6118 1.09378 11.4313 0 9.99987 0C8.56846 0 7.38791 1.09378 7.24964 2.48938H3.33343C2.15838 2.48938 1.20239 3.44537 1.20239 4.62041C1.20239 5.76 2.10154 6.69344 3.22765 6.74879V17.4264C3.22765 18.8455 4.38215 20 5.80126 20H14.1986C15.6177 20 16.7722 18.8455 16.7722 17.4264V6.74883C17.8983 6.69348 18.7974 5.76004 18.7974 4.62046C18.7974 3.44537 17.8414 2.48938 16.6663 2.48938ZM9.99987 1.30862C10.7084 1.30862 11.3001 1.8178 11.4289 2.48938H8.57086C8.69967 1.8178 9.2913 1.30862 9.99987 1.30862ZM15.4635 17.4264C15.4635 18.124 14.8961 18.6914 14.1985 18.6914H5.80122C5.10368 18.6914 4.53622 18.124 4.53622 17.4264V6.75149C5.07031 6.75149 15.0458 6.75149 15.4635 6.75149V17.4264V17.4264ZM16.6663 5.44288C16.5299 5.44288 3.44942 5.44288 3.33343 5.44288C2.87995 5.44288 2.51101 5.07394 2.51101 4.62046C2.51101 4.16698 2.87995 3.79804 3.33343 3.79804H16.6663C17.1198 3.79804 17.4888 4.16698 17.4888 4.62046C17.4888 5.07394 17.1199 5.44288 16.6663 5.44288Z" fill="#EA4B4B"/>
<path d="M9.99977 17.1133C10.3611 17.1133 10.6541 16.8204 10.6541 16.459V8.88191C10.6541 8.52056 10.3612 8.2276 9.99977 8.2276C9.63841 8.2276 9.34546 8.52056 9.34546 8.88191V16.459C9.34546 16.8204 9.63841 17.1133 9.99977 17.1133Z" fill="#EA4B4B"/>
<path d="M13.377 17.1133C13.7383 17.1133 14.0313 16.8204 14.0313 16.459V8.88191C14.0313 8.52056 13.7383 8.2276 13.377 8.2276C13.0156 8.2276 12.7227 8.52056 12.7227 8.88191V16.459C12.7227 16.8204 13.0156 17.1133 13.377 17.1133Z" fill="#EA4B4B"/>
<path d="M6.62281 17.1133C6.98417 17.1133 7.27712 16.8204 7.27712 16.459V8.88191C7.27712 8.52056 6.98417 8.2276 6.62281 8.2276C6.26146 8.2276 5.96851 8.52056 5.96851 8.88191V16.459C5.96851 16.8204 6.26146 17.1133 6.62281 17.1133Z" fill="#EA4B4B"/>
</svg>
